<svg width="300" height="100" viewBox="0 0 300 100" fill="none" xmlns="http://www.w3.org/2000/svg">
<path d="M112.344 43V20.0938H116.969V29.1094H126.031V20.0938H130.656V43H126.031V32.9844H116.969V43H112.344Z" fill="white"/>
<path d="M134.406 34.4688C134.406 33.0104 134.766 31.599 135.484 30.2344C136.203 28.8698 137.219 27.8281 138.531 27.1094C139.854 26.3906 141.328 26.0312 142.953 26.0312C145.464 26.0312 147.521 26.849 149.125 28.4844C150.729 30.1094 151.531 32.1667 151.531 34.6562C151.531 37.1667 150.719 39.25 149.094 40.9062C147.479 42.5521 145.443 43.375 142.984 43.375C141.464 43.375 140.01 43.0312 138.625 42.3438C137.25 41.6562 136.203 40.651 135.484 39.3281C134.766 37.9948 134.406 36.375 134.406 34.4688ZM138.906 34.7031C138.906 36.349 139.297 37.6094 140.078 38.4844C140.859 39.3594 141.823 39.7969 142.969 39.7969C144.115 39.7969 145.073 39.3594 145.844 38.4844C146.625 37.6094 147.016 36.3385 147.016 34.6719C147.016 33.0469 146.625 31.7969 145.844 30.9219C145.073 30.0469 144.115 29.6094 142.969 29.6094C141.823 29.6094 140.859 30.0469 140.078 30.9219C139.297 31.7969 138.906 33.0573 138.906 34.7031Z" fill="white"/>
<path d="M154.656 26.4062H158.703V28.6719C160.151 26.9115 161.875 26.0312 163.875 26.0312C164.938 26.0312 165.859 26.25 166.641 26.6875C167.422 27.125 168.062 27.7865 168.562 28.6719C169.292 27.7865 170.078 27.125 170.922 26.6875C171.766 26.25 172.667 26.0312 173.625 26.0312C174.844 26.0312 175.875 26.2812 176.719 26.7812C177.562 27.2708 178.193 27.9948 178.609 28.9531C178.911 29.6615 179.062 30.8073 179.062 32.3906V43H174.672V33.5156C174.672 31.8698 174.521 30.8073 174.219 30.3281C173.812 29.7031 173.188 29.3906 172.344 29.3906C171.729 29.3906 171.151 29.5781 170.609 29.9531C170.068 30.3281 169.677 30.8802 169.438 31.6094C169.198 32.3281 169.078 33.4688 169.078 35.0312V43H164.688V33.9062C164.688 32.2917 164.609 31.25 164.453 30.7812C164.297 30.3125 164.052 29.9635 163.719 29.7344C163.396 29.5052 162.953 29.3906 162.391 29.3906C161.714 29.3906 161.104 29.5729 160.562 29.9375C160.021 30.3021 159.63 30.8281 159.391 31.5156C159.161 32.2031 159.047 33.3438 159.047 34.9375V43H154.656V26.4062Z" fill="white"/>
<path d="M193.062 37.7188L197.438 38.4531C196.875 40.0573 195.984 41.2812 194.766 42.125C193.557 42.9583 192.042 43.375 190.219 43.375C187.333 43.375 185.198 42.4323 183.812 40.5469C182.719 39.0365 182.172 37.1302 182.172 34.8281C182.172 32.0781 182.891 29.9271 184.328 28.375C185.766 26.8125 187.583 26.0312 189.781 26.0312C192.25 26.0312 194.198 26.849 195.625 28.4844C197.052 30.1094 197.734 32.6042 197.672 35.9688H186.672C186.703 37.2708 187.057 38.2865 187.734 39.0156C188.411 39.7344 189.255 40.0938 190.266 40.0938C190.953 40.0938 191.531 39.9062 192 39.5312C192.469 39.1562 192.823 38.5521 193.062 37.7188ZM193.312 33.2812C193.281 32.0104 192.953 31.0469 192.328 30.3906C191.703 29.724 190.943 29.3906 190.047 29.3906C189.089 29.3906 188.297 29.7396 187.672 30.4375C187.047 31.1354 186.74 32.0833 186.75 33.2812H193.312Z" fill="white"/>
<path d="M199.719 38.2656L204.125 37.5938C204.312 38.4479 204.693 39.099 205.266 39.5469C205.839 39.9844 206.641 40.2031 207.672 40.2031C208.807 40.2031 209.661 39.9948 210.234 39.5781C210.62 39.2865 210.812 38.8958 210.812 38.4062C210.812 38.0729 210.708 37.7969 210.5 37.5781C210.281 37.3698 209.792 37.1771 209.031 37C205.49 36.2188 203.245 35.5052 202.297 34.8594C200.984 33.9635 200.328 32.7188 200.328 31.125C200.328 29.6875 200.896 28.4792 202.031 27.5C203.167 26.5208 204.927 26.0312 207.312 26.0312C209.583 26.0312 211.271 26.401 212.375 27.1406C213.479 27.8802 214.24 28.974 214.656 30.4219L210.516 31.1875C210.339 30.5417 210 30.0469 209.5 29.7031C209.01 29.3594 208.307 29.1875 207.391 29.1875C206.234 29.1875 205.406 29.349 204.906 29.6719C204.573 29.901 204.406 30.1979 204.406 30.5625C204.406 30.875 204.552 31.1406 204.844 31.3594C205.24 31.651 206.604 32.0625 208.938 32.5938C211.281 33.125 212.917 33.776 213.844 34.5469C214.76 35.3281 215.219 36.4167 215.219 37.8125C215.219 39.3333 214.583 40.6406 213.312 41.7344C212.042 42.8281 210.161 43.375 207.672 43.375C205.411 43.375 203.62 42.9167 202.297 42C200.984 41.0833 200.125 39.8385 199.719 38.2656Z" fill="white"/>
<path d="M233.547 31.3125L229.219 32.0938C229.073 31.2292 228.74 30.5781 228.219 30.1406C227.708 29.7031 227.042 29.4844 226.219 29.4844C225.125 29.4844 224.25 29.8646 223.594 30.625C222.948 31.375 222.625 32.6354 222.625 34.4062C222.625 36.375 222.953 37.7656 223.609 38.5781C224.276 39.3906 225.167 39.7969 226.281 39.7969C227.115 39.7969 227.797 39.5625 228.328 39.0938C228.859 38.6146 229.234 37.7969 229.453 36.6406L233.766 37.375C233.318 39.3542 232.458 40.849 231.188 41.8594C229.917 42.8698 228.214 43.375 226.078 43.375C223.651 43.375 221.714 42.6094 220.266 41.0781C218.828 39.5469 218.109 37.4271 218.109 34.7188C218.109 31.9792 218.833 29.849 220.281 28.3281C221.729 26.7969 223.688 26.0312 226.156 26.0312C228.177 26.0312 229.781 26.4688 230.969 27.3438C232.167 28.2083 233.026 29.5312 233.547 31.3125Z" fill="white"/>
<path d="M241.266 20.0938V28.5156C242.682 26.8594 244.375 26.0312 246.344 26.0312C247.354 26.0312 248.266 26.2188 249.078 26.5938C249.891 26.9688 250.5 27.4479 250.906 28.0312C251.323 28.6146 251.604 29.2604 251.75 29.9688C251.906 30.6771 251.984 31.776 251.984 33.2656V43H247.594V34.2344C247.594 32.4948 247.51 31.3906 247.344 30.9219C247.177 30.4531 246.88 30.0833 246.453 29.8125C246.036 29.5312 245.51 29.3906 244.875 29.3906C244.146 29.3906 243.495 29.5677 242.922 29.9219C242.349 30.276 241.927 30.8125 241.656 31.5312C241.396 32.2396 241.266 33.2917 241.266 34.6875V43H236.875V20.0938H241.266Z" fill="white"/>
<path d="M255.438 34.4688C255.438 33.0104 255.797 31.599 256.516 30.2344C257.234 28.8698 258.25 27.8281 259.562 27.1094C260.885 26.3906 262.359 26.0312 263.984 26.0312C266.495 26.0312 268.552 26.849 270.156 28.4844C271.76 30.1094 272.562 32.1667 272.562 34.6562C272.562 37.1667 271.75 39.25 270.125 40.9062C268.51 42.5521 266.474 43.375 264.016 43.375C262.495 43.375 261.042 43.0312 259.656 42.3438C258.281 41.6562 257.234 40.651 256.516 39.3281C255.797 37.9948 255.438 36.375 255.438 34.4688ZM259.938 34.7031C259.938 36.349 260.328 37.6094 261.109 38.4844C261.891 39.3594 262.854 39.7969 264 39.7969C265.146 39.7969 266.104 39.3594 266.875 38.4844C267.656 37.6094 268.047 36.3385 268.047 34.6719C268.047 33.0469 267.656 31.7969 266.875 30.9219C266.104 30.0469 265.146 29.6094 264 29.6094C262.854 29.6094 261.891 30.0469 261.109 30.9219C260.328 31.7969 259.938 33.0573 259.938 34.7031Z" fill="white"/>
<path d="M275 34.4688C275 33.0104 275.359 31.599 276.078 30.2344C276.797 28.8698 277.812 27.8281 279.125 27.1094C280.448 26.3906 281.922 26.0312 283.547 26.0312C286.057 26.0312 288.115 26.849 289.719 28.4844C291.323 30.1094 292.125 32.1667 292.125 34.6562C292.125 37.1667 291.312 39.25 289.688 40.9062C288.073 42.5521 286.036 43.375 283.578 43.375C282.057 43.375 280.604 43.0312 279.219 42.3438C277.844 41.6562 276.797 40.651 276.078 39.3281C275.359 37.9948 275 36.375 275 34.4688ZM279.5 34.7031C279.5 36.349 279.891 37.6094 280.672 38.4844C281.453 39.3594 282.417 39.7969 283.562 39.7969C284.708 39.7969 285.667 39.3594 286.438 38.4844C287.219 37.6094 287.609 36.3385 287.609 34.6719C287.609 33.0469 287.219 31.7969 286.438 30.9219C285.667 30.0469 284.708 29.6094 283.562 29.6094C282.417 29.6094 281.453 30.0469 280.672 30.9219C279.891 31.7969 279.5 33.0573 279.5 34.7031Z" fill="white"/>
<path d="M295.578 43V20.0938H299.969V43H295.578Z" fill="white"/>
<path d="M112.344 80V57.0938H116.969V66.1094H126.031V57.0938H130.656V80H126.031V69.9844H116.969V80H112.344Z" fill="white"/>
<path d="M146.344 80V77.5156C145.74 78.401 144.943 79.099 143.953 79.6094C142.974 80.1198 141.938 80.375 140.844 80.375C139.729 80.375 138.729 80.1302 137.844 79.6406C136.958 79.151 136.318 78.4635 135.922 77.5781C135.526 76.6927 135.328 75.4688 135.328 73.9062V63.4062H139.719V71.0312C139.719 73.3646 139.797 74.7969 139.953 75.3281C140.12 75.849 140.417 76.2656 140.844 76.5781C141.271 76.8802 141.812 77.0312 142.469 77.0312C143.219 77.0312 143.891 76.8281 144.484 76.4219C145.078 76.0052 145.484 75.4948 145.703 74.8906C145.922 74.276 146.031 72.7812 146.031 70.4062V63.4062H150.422V80H146.344Z" fill="white"/>
<path d="M154.797 80V57.0938H159.188V65.3438C160.542 63.8021 162.146 63.0312 164 63.0312C166.021 63.0312 167.693 63.7656 169.016 65.2344C170.339 66.6927 171 68.7917 171 71.5312C171 74.3646 170.323 76.5469 168.969 78.0781C167.625 79.6094 165.99 80.375 164.062 80.375C163.115 80.375 162.177 80.1406 161.25 79.6719C160.333 79.1927 159.542 78.4896 158.875 77.5625V80H154.797ZM159.156 71.3438C159.156 73.0625 159.427 74.3333 159.969 75.1562C160.729 76.3229 161.74 76.9062 163 76.9062C163.969 76.9062 164.792 76.4948 165.469 75.6719C166.156 74.8385 166.5 73.5312 166.5 71.75C166.5 69.8542 166.156 68.4896 165.469 67.6562C164.781 66.8125 163.901 66.3906 162.828 66.3906C161.776 66.3906 160.901 66.8021 160.203 67.625C159.505 68.4375 159.156 69.6771 159.156 71.3438Z" fill="white"/>
<path d="M57.1227 29.4516C53.4218 33.3564 42.1582 38.5108 30.2506 39.9165C26.8719 40.5413 25.5837 43.7122 28.1586 46.3203C31.377 49.5801 39.9406 59.1281 36.6873 72.0923C35.825 75.5284 40.0623 77.4438 42.48 74.435C48.7555 66.6254 62.1109 61.6272 69.3518 63.6578C74.6352 65.1395 76.2709 61.3424 73.0527 58.0348C64.5245 49.2695 64.5245 38.835 64.5245 32.8979V32.8877C64.5245 28.0457 60.5277 25.8591 57.1227 29.4516Z" fill="#FEDA01"/>
<path d="M95.2588 26.3263C91.8797 28.9816 77.8806 33.8236 69.9961 35.2293C69.996 51.7858 84.1561 63.5003 97.6724 67.4051C101.373 56.4716 100.73 36.0103 95.2588 26.3263Z" fill="#081BF0"/>
<path d="M26.8722 94.8955C18.6659 90.3659 2.7359 77.8704 0.322266 57.8777C6.75861 60.6892 22.6886 60.8453 30.5731 59.1272C34.274 71.9351 30.5731 87.8668 26.8722 94.8955Z" fill="#CBDC7F"/>
<path d="M81.7419 88.492C77.5583 84.8995 72.4092 75.2155 70.8001 69.9052C54.0656 66.1565 44.0893 80.8387 36.6875 98.1759C49.882 102.549 72.5701 98.9569 81.7419 88.492Z" fill="#FD8400"/>
<path d="M31.2168 3.05411C34.1132 7.11513 40.3886 23.0468 38.6186 32.887C53.4222 28.67 63.8813 19.2984 71.7658 4.45984C62.9158 -1.47574 40.3886 -1.00686 31.2168 3.05411Z" fill="#51509E"/>
<path d="M0 43.3529C6.91907 48.3511 18.0218 51.9436 25.5845 51.9436C12.39 34.6061 33.469 33.2004 38.2963 33.0442C31.0554 30.7013 22.849 19.924 18.8263 9.77141C10.62 15.2382 0.804543 30.5451 0 43.3529Z" fill="#FEB628"/>
</svg>
