<svg width="100" height="100" viewBox="0 0 100 100" fill="none" xmlns="http://www.w3.org/2000/svg">
<path d="M57.1227 29.4509C53.4218 33.3558 42.1582 38.5101 30.2506 39.9159C26.8719 40.5407 25.5837 43.7116 28.1586 46.3196C31.377 49.5794 39.9406 59.1275 36.6873 72.0917C35.825 75.5278 40.0623 77.4432 42.48 74.4344C48.7555 66.6248 62.1109 61.6266 69.3518 63.6572C74.6352 65.1389 76.2709 61.3417 73.0527 58.0341C64.5245 49.2689 64.5245 38.8344 64.5245 32.8973V32.8871C64.5245 28.0451 60.5277 25.8585 57.1227 29.4509Z" fill="#FEDA01"/>
<path d="M95.2588 26.3262C91.8797 28.9815 77.8806 33.8234 69.9961 35.2292C69.996 51.7857 84.1561 63.5002 97.6724 67.405C101.373 56.4715 100.73 36.0102 95.2588 26.3262Z" fill="#081BF0"/>
<path d="M26.8722 94.8947C18.6659 90.3651 2.7359 77.8697 0.322266 57.877C6.75861 60.6884 22.6886 60.8446 30.5731 59.1265C34.274 71.9343 30.5731 87.8661 26.8722 94.8947Z" fill="#CBDC7F"/>
<path d="M81.7419 88.4928C77.5583 84.9003 72.4092 75.2164 70.8001 69.906C54.0656 66.1574 44.0893 80.8395 36.6875 98.1767C49.882 102.55 72.5701 98.9577 81.7419 88.4928Z" fill="#FD8400"/>
<path d="M31.2168 3.05411C34.1132 7.11513 40.3886 23.0468 38.6186 32.887C53.4222 28.67 63.8813 19.2984 71.7658 4.45984C62.9158 -1.47574 40.3886 -1.00686 31.2168 3.05411Z" fill="#51509E"/>
<path d="M0 43.353C6.91907 48.3512 18.0218 51.9437 25.5845 51.9437C12.39 34.6062 33.469 33.2005 38.2963 33.0443C31.0554 30.7014 22.849 19.924 18.8263 9.77148C10.62 15.2382 0.804543 30.5452 0 43.353Z" fill="#FEB628"/>
</svg>
